<?xml version="1.0" encoding="UTF-8" standalone="no"?>
<svg
   xmlns:dc="http://purl.org/dc/elements/1.1/"
   xmlns:cc="http://creativecommons.org/ns#"
   xmlns:rdf="http://www.w3.org/1999/02/22-rdf-syntax-ns#"
   xmlns:svg="http://www.w3.org/2000/svg"
   xmlns="http://www.w3.org/2000/svg"
   xmlns:sodipodi="http://sodipodi.sourceforge.net/DTD/sodipodi-0.dtd"
   xmlns:inkscape="http://www.inkscape.org/namespaces/inkscape"
   version="1.1"
   width="24"
   height="24"
   viewBox="0 0 24 24"
   id="svg4"
   sodipodi:docname="facebook.svg"
   inkscape:version="1.0.1 (3bc2e813f5, 2020-09-07)">
  <metadata
     id="metadata10">
    <rdf:RDF>
      <cc:Work
         rdf:about="">
        <dc:format>image/svg+xml</dc:format>
        <dc:type
           rdf:resource="http://purl.org/dc/dcmitype/StillImage" />
      </cc:Work>
    </rdf:RDF>
  </metadata>
  <defs
     id="defs8" />
  <sodipodi:namedview
     pagecolor="#ffffff"
     bordercolor="#666666"
     borderopacity="1"
     objecttolerance="10"
     gridtolerance="10"
     guidetolerance="10"
     inkscape:pageopacity="0"
     inkscape:pageshadow="2"
     inkscape:window-width="1920"
     inkscape:window-height="1001"
     id="namedview6"
     showgrid="false"
     inkscape:zoom="22.627417"
     inkscape:cx="20.280406"
     inkscape:cy="14.87984"
     inkscape:window-x="-9"
     inkscape:window-y="-9"
     inkscape:window-maximized="1"
     inkscape:current-layer="svg4"
     inkscape:document-rotation="0" />
  <path
     d="M12 2.04C6.5 2.04 2 6.53 2 12.06C2 17.06 5.66 21.21 10.44 21.96V14.96H7.9V12.06H10.44V9.85C10.44 7.34 11.93 5.96 14.22 5.96C15.31 5.96 16.45 6.15 16.45 6.15V8.62H15.19C13.95 8.62 13.56 9.39 13.56 10.18V12.06H16.34L15.89 14.96H13.56V21.96A10 10 0 0 0 22 12.06C22 6.53 17.5 2.04 12 2.04Z"
     id="path2" />
  <path
     style="fill:#000000;stroke-width:0.0289157"
     d="M 9.9903614,21.859678 C 6.0824848,21.05149 3.012595,17.964656 2.2121692,14.038554 2.0481574,13.234074 1.9789028,12.032901 2.0501031,11.227629 2.1640214,9.9392186 2.5281094,8.6574142 3.0955647,7.546988 4.574418,4.6530909 7.341668,2.6477693 10.515339,2.1701573 c 1.024489,-0.1541774 1.944833,-0.1541774 2.969322,0 2.094096,0.3151446 4.018996,1.2887725 5.542304,2.8033367 1.689803,1.6801035 2.705804,3.8538867 2.922987,6.253872 0.04298,0.474936 0.01741,1.684036 -0.04508,2.13167 -0.31294,2.241792 -1.285924,4.213223 -2.852645,5.779943 -1.477737,1.477738 -3.266447,2.402279 -5.39681,2.789483 l -0.09398,0.01708 v -3.483614 -3.483615 h 1.171084 c 0.644097,0 1.171241,-0.0033 1.171432,-0.0072 2.02e-4,-0.004 0.101925,-0.661084 0.226075,-1.460241 L 16.355755,12.05786 H 14.95572 13.555685 l 0.01304,-1.091566 c 0.01408,-1.1782444 0.02353,-1.2597912 0.184536,-1.5921359 0.09098,-0.1877925 0.329812,-0.4380165 0.501853,-0.5257857 0.352635,-0.1799008 0.378945,-0.1837952 1.323187,-0.1958553 L 16.453,8.6413451 V 7.3857184 c 0,-0.6905789 -0.0042,-1.2555979 -0.0094,-1.2555979 -0.0052,0 -0.145063,-0.018981 -0.310844,-0.042179 C 15.206815,5.958369 14.029189,5.9193432 13.489169,6.0003355 12.040201,6.2176506 11.065594,7.015997 10.646374,8.3290015 10.465092,8.8967799 10.457646,8.9807698 10.4459,10.590362 l -0.01071,1.46747 H 9.1645773 7.8939759 v 1.460241 1.460241 h 1.2722892 1.2722889 v 3.484338 c 0,1.916385 -0.0098,3.483529 -0.02169,3.482542 -0.01193,-9.86e-4 -0.203855,-0.03947 -0.4265056,-0.08552 z"
     id="path12" />
  <path
     style="fill:#cccccc;stroke-width:0.0289157"
     d="M 10.236145,21.913013 C 9.3605618,21.726072 8.974796,21.61535 8.3710843,21.377709 5.2136455,20.13483 2.8943481,17.372737 2.2147673,14.046039 2.0665142,13.320307 2.0408505,13.031028 2.0396637,12.072289 2.0384515,11.092907 2.0639529,10.816901 2.2302111,10.009958 2.6889562,7.7834174 3.9642106,5.7044799 5.747723,4.2756612 7.2434209,3.0774183 8.9352873,2.3618978 10.844399,2.1201858 c 0.539592,-0.068318 1.77161,-0.068318 2.311202,0 2.262433,0.286446 4.27373,1.263231 5.869598,2.8505675 1.518828,1.5107084 2.494087,3.412639 2.833395,5.5256327 0.169174,1.053505 0.15875,2.274549 -0.02839,3.325301 -0.479806,2.694046 -2.035048,5.061739 -4.321772,6.579447 -1.1835,0.785493 -2.379146,1.259445 -3.853012,1.527328 l -0.09398,0.01708 v -3.483614 -3.483615 h 1.168472 1.168471 l 0.03255,-0.19518 c 0.0179,-0.10735 0.120757,-0.764458 0.228572,-1.460241 l 0.196027,-1.265061 h -1.399919 -1.39992 l 0.01304,-1.091566 c 0.01408,-1.1782444 0.02353,-1.2597912 0.184536,-1.5921359 0.09098,-0.1877925 0.329812,-0.4380165 0.501853,-0.5257857 0.352635,-0.1799008 0.378945,-0.1837952 1.323187,-0.1958553 l 0.874699,-0.011172 V 7.3857184 c 0,-0.6905789 -0.0033,-1.2556459 -0.0072,-1.2557049 -0.004,-5.78e-5 -0.20241,-0.025222 -0.440964,-0.055919 -1.078708,-0.138805 -2.211276,-0.1533053 -2.755136,-0.035274 -1.332597,0.2892067 -2.181451,1.0299696 -2.591367,2.261387 -0.19139,0.5749515 -0.199478,0.6621727 -0.212359,2.2901525 l -0.01161,1.467471 H 9.1641606 7.8939759 v 1.460241 1.46024 h 1.2722892 1.2722889 v 3.484338 c 0,2.769844 -0.0074,3.483702 -0.03614,3.48124 -0.01988,-0.0017 -0.0947,-0.0156 -0.166265,-0.03088 z"
     id="path14" />
  <path
     style="fill:#e6e6e6;stroke-width:0.0289157"
     d="M 9.812703,21.801833 C 7.9004214,21.359337 6.2730043,20.441771 4.8804227,19.020927 4.08865,18.213086 3.5451499,17.439848 3.0438966,16.408099 2.6374856,15.571567 2.385878,14.823654 2.2108529,13.931843 2.0766787,13.24818 2.0553169,12.925627 2.0717313,11.831173 2.0879068,10.752656 2.1193152,10.491024 2.3353149,9.6355213 3.2867121,5.867355 6.3702846,2.9635746 10.188607,2.2401274 c 0.737468,-0.1397261 1.786869,-0.1945184 2.588382,-0.135147 1.92676,0.1427231 3.887795,0.9225515 5.435714,2.1615747 0.653865,0.5233825 1.502528,1.4356906 1.987661,2.1367243 0.831817,1.2020047 1.40577,2.6346639 1.6392,4.0916496 0.159967,0.998459 0.159312,2.149542 -0.0018,3.166182 -0.595012,3.754561 -3.37933,6.917254 -7.02265,7.976994 -0.36376,0.105807 -1.098681,0.277066 -1.192771,0.277951 -0.04791,4.51e-4 -0.0506,-0.183163 -0.0506,-3.454945 v -3.455422 h 1.168116 1.168116 l 0.0309,-0.180723 c 0.017,-0.0994 0.116142,-0.733735 0.220322,-1.409638 0.10418,-0.675904 0.195953,-1.258193 0.20394,-1.293976 l 0.01452,-0.06506 h -1.407539 -1.40754 l 0.01999,-1.033735 c 0.01099,-0.568554 0.03328,-1.1179398 0.04953,-1.2208572 0.08815,-0.5583054 0.538219,-1.0091382 1.09627,-1.0981305 0.103373,-0.016485 0.43647,-0.030071 0.740215,-0.030191 0.303745,-1.157e-4 0.651818,-0.00863 0.773494,-0.018919 l 0.22123,-0.018701 V 7.3812615 c 0,-0.9778219 -0.008,-1.2571828 -0.03614,-1.266679 -0.01988,-0.0067 -0.28988,-0.04156 -0.6,-0.077466 -0.763421,-0.088388 -2.191034,-0.09705 -2.56875,-0.015586 -0.763868,0.164747 -1.477043,0.5423164 -1.886397,0.9986978 -0.594896,0.6632383 -0.928651,1.5839702 -0.9241,2.5493161 7.11e-4,0.1510844 -0.0072,0.7724096 -0.01768,1.3807226 l -0.01898,1.106024 h -1.2679504 -1.26795 v 1.474699 1.474699 h 1.2722891 1.2722893 v 3.36506 c 0,1.850783 -0.0081,3.405723 -0.01807,3.455422 -0.01164,0.05817 -0.03481,0.0896 -0.06506,0.08821 -0.02584,-0.0012 -0.261686,-0.05183 -0.524096,-0.11255 z"
     id="path16" />
  <path
     style="fill:#e6e6e6;stroke-width:0.0441942"
     d="M 9.8726781,21.793609 C 8.4282512,21.463595 7.116272,20.847437 5.954837,19.953633 5.4407765,19.558028 4.5273548,18.648383 4.143924,18.150209 3.1572024,16.868204 2.4915104,15.343839 2.175361,13.642403 2.0667389,13.057827 2.0716665,11.08948 2.1833813,10.438662 2.8420175,6.6016341 5.6858745,3.4663855 9.4412201,2.4371596 10.193118,2.2310873 10.754167,2.1521834 11.68623,2.1214299 c 1.749628,-0.057729 3.182756,0.2593412 4.77138,1.055637 1.273685,0.6384335 2.361275,1.5247108 3.298594,2.6880264 0.912877,1.1329788 1.549513,2.4293769 1.911494,3.8924224 0.337786,1.3652533 0.340173,3.2069653 0.006,4.6098383 -0.875433,3.67484 -3.794093,6.568037 -7.469967,7.4048 -0.218761,0.0498 -0.442494,0.100824 -0.497184,0.113392 l -0.09944,0.02285 V 18.46041 15.012422 h 1.162481 1.162481 l 0.211603,-1.381068 c 0.116383,-0.759587 0.221875,-1.425814 0.234427,-1.480505 l 0.02282,-0.09944 h -1.413104 -1.413104 l 0.01534,-0.298311 c 0.0084,-0.164071 0.02422,-0.676171 0.03506,-1.138 0.02258,-0.9615111 0.06435,-1.1398249 0.340432,-1.4534749 0.09807,-0.1114131 0.286022,-0.2531473 0.427461,-0.322347 0.243595,-0.1191802 0.284149,-0.1244888 1.158525,-0.1516545 0.498352,-0.015484 0.911371,-0.030629 0.91782,-0.033658 0.0065,-0.00303 0.0065,-0.577209 0,-1.2759569 l -0.01173,-1.2704501 -0.353553,-0.06021 c -0.232645,-0.039619 -0.776736,-0.062335 -1.590991,-0.066424 -1.186173,-0.00596 -1.251104,-0.0019 -1.567366,0.097931 -1.283777,0.4052308 -2.040893,1.1847926 -2.389595,2.4604384 -0.08562,0.3132293 -0.100312,0.5186187 -0.132655,1.854835 -0.02,0.826431 -0.03776,1.537405 -0.03946,1.579942 -0.0029,0.07177 -0.0937,0.07734 -1.2626179,0.07734 H 7.8618432 v 1.480504 1.480505 h 1.2595339 1.2595339 v 3.42244 c 0,1.882342 -0.01491,3.430828 -0.03315,3.44108 -0.01823,0.01025 -0.232019,-0.0268 -0.4750869,-0.08233 z"
     id="path10" />
</svg>
