<?xml version="1.0" encoding="UTF-8" standalone="no"?>
<svg
   xmlns:dc="http://purl.org/dc/elements/1.1/"
   xmlns:cc="http://creativecommons.org/ns#"
   xmlns:rdf="http://www.w3.org/1999/02/22-rdf-syntax-ns#"
   xmlns:svg="http://www.w3.org/2000/svg"
   xmlns="http://www.w3.org/2000/svg"
   xmlns:sodipodi="http://sodipodi.sourceforge.net/DTD/sodipodi-0.dtd"
   xmlns:inkscape="http://www.inkscape.org/namespaces/inkscape"
   version="1.1"
   width="24"
   height="24"
   viewBox="0 0 24 24"
   id="svg4"
   sodipodi:docname="github.svg"
   inkscape:version="1.0.1 (3bc2e813f5, 2020-09-07)">
  <metadata
     id="metadata10">
    <rdf:RDF>
      <cc:Work
         rdf:about="">
        <dc:format>image/svg+xml</dc:format>
        <dc:type
           rdf:resource="http://purl.org/dc/dcmitype/StillImage" />
      </cc:Work>
    </rdf:RDF>
  </metadata>
  <defs
     id="defs8" />
  <sodipodi:namedview
     pagecolor="#ffffff"
     bordercolor="#666666"
     borderopacity="1"
     objecttolerance="10"
     gridtolerance="10"
     guidetolerance="10"
     inkscape:pageopacity="0"
     inkscape:pageshadow="2"
     inkscape:window-width="1920"
     inkscape:window-height="1001"
     id="namedview6"
     showgrid="false"
     inkscape:zoom="34.583333"
     inkscape:cx="12"
     inkscape:cy="11.942169"
     inkscape:window-x="-9"
     inkscape:window-y="-9"
     inkscape:window-maximized="1"
     inkscape:current-layer="svg4" />
  <path
     d="M12,2A10,10 0 0,0 2,12C2,16.42 4.87,20.17 8.84,21.5C9.34,21.58 9.5,21.27 9.5,21C9.5,20.77 9.5,20.14 9.5,19.31C6.73,19.91 6.14,17.97 6.14,17.97C5.68,16.81 5.03,16.5 5.03,16.5C4.12,15.88 5.1,15.9 5.1,15.9C6.1,15.97 6.63,16.93 6.63,16.93C7.5,18.45 8.97,18 9.54,17.76C9.63,17.11 9.89,16.67 10.17,16.42C7.95,16.17 5.62,15.31 5.62,11.5C5.62,10.39 6,9.5 6.65,8.79C6.55,8.54 6.2,7.5 6.75,6.15C6.75,6.15 7.59,5.88 9.5,7.17C10.29,6.95 11.15,6.84 12,6.84C12.85,6.84 13.71,6.95 14.5,7.17C16.41,5.88 17.25,6.15 17.25,6.15C17.8,7.5 17.45,8.54 17.35,8.79C18,9.5 18.38,10.39 18.38,11.5C18.38,15.32 16.04,16.16 13.81,16.41C14.17,16.72 14.5,17.33 14.5,18.26C14.5,19.6 14.5,20.68 14.5,21C14.5,21.27 14.66,21.59 15.17,21.5C19.14,20.16 22,16.42 22,12A10,10 0 0,0 12,2Z"
     id="path2" />
  <path
     style="fill:#e6e6e6;stroke-width:0.0289157"
     d="m 14.876504,21.487006 c -0.127489,-0.03148 -0.241273,-0.114392 -0.297259,-0.216601 -0.04412,-0.08055 -0.05077,-0.264945 -0.06526,-1.810164 l -0.01613,-1.720482 -0.07597,-0.281085 c -0.09473,-0.350521 -0.215257,-0.605689 -0.399845,-0.846521 -0.136575,-0.17819 -0.140158,-0.187408 -0.07779,-0.200121 0.03596,-0.0073 0.241042,-0.04125 0.455741,-0.07539 2.348624,-0.373395 3.601237,-1.567771 3.919743,-3.737505 0.07197,-0.490287 0.0867,-1.336456 0.02995,-1.720046 -0.10982,-0.742237 -0.398958,-1.4038401 -0.844943,-1.9334013 L 17.379858,8.7974036 17.455066,8.5119548 C 17.55533,8.1314088 17.581011,7.4671145 17.512243,7.0329293 17.468768,6.758446 17.325659,6.2551405 17.26376,6.1590361 c -0.02185,-0.033921 -0.0833,-0.042131 -0.281993,-0.037673 -0.287809,0.00646 -0.682798,0.097453 -1.037239,0.2389527 -0.308436,0.1231335 -0.884268,0.4255691 -1.191192,0.625632 L 14.502552,7.1494175 14.179133,7.0732493 C 12.798025,6.7479852 11.268403,6.7480803 9.8303297,7.0735096 L 9.496804,7.1489873 9.2463415,6.9857274 C 8.449964,6.4666225 7.5932134,6.1342537 7.0182327,6.1213527 6.8195401,6.1168945 6.7580883,6.1251042 6.7362402,6.1590257 6.6779176,6.2495774 6.5354227,6.7418013 6.4894444,7.0115373 6.4177579,7.4320927 6.4434338,8.1275688 6.544837,8.5119444 L 6.620142,8.7973932 6.4952587,8.9456793 c -0.4460475,0.5296358 -0.7352704,1.1914937 -0.84487,1.9334017 -0.056951,0.38552 -0.042407,1.235548 0.029431,1.720047 0.2599553,1.753216 1.1106021,2.854715 2.6478908,3.428741 0.4184574,0.156253 1.0984089,0.31493 1.6380541,0.382265 l 0.1488974,0.01858 -0.1380257,0.182357 c -0.1815851,0.239908 -0.312707,0.522554 -0.382754,0.825065 -0.031302,0.135181 -0.066337,0.264378 -0.077856,0.287103 -0.054771,0.108068 -0.7160938,0.262305 -1.12464,0.262305 -0.7388105,0 -1.2495259,-0.304202 -1.7252007,-1.027597 -0.4115482,-0.625874 -0.8556104,-0.955589 -1.4179931,-1.05286 -0.2160454,-0.03737 -0.4938195,0.0024 -0.5735146,0.08208 -0.1183585,0.118359 -0.012679,0.27023 0.3835005,0.551128 0.1552323,0.110062 0.3471562,0.275778 0.4264976,0.368258 0.278564,0.324691 0.3844352,0.506923 0.7008405,1.206334 0.2686329,0.593809 0.8330686,1.051806 1.5205073,1.233776 0.3269124,0.08653 0.9592447,0.106611 1.4012484,0.04449 0.1822528,-0.02562 0.3416504,-0.04657 0.3542168,-0.04657 0.012567,0 0.022848,0.401327 0.022848,0.891838 0,0.872033 -0.00146,0.8946 -0.065781,1.016231 C 9.2776861,21.519037 9.0018642,21.550035 8.486747,21.357366 8.0837693,21.206641 7.1025019,20.717431 6.7296813,20.481382 4.0246819,18.76873 2.3171292,15.9711 2.0511529,12.816148 2.0071116,12.293739 2.0301701,11.179508 2.0943722,10.727711 2.4866371,7.9672991 3.8451018,5.6462166 6.0296426,4.0038795 7.3966867,2.9761362 8.9197287,2.3577898 10.742169,2.0906208 c 0.497463,-0.072928 2.018199,-0.072928 2.515662,0 2.323394,0.3406088 4.224855,1.279229 5.813799,2.8698727 1.555291,1.5569546 2.516112,3.5153031 2.836651,5.7816755 0.0755,0.533862 0.07591,1.941607 7.11e-4,2.501204 -0.30537,2.272559 -1.282373,4.248025 -2.895906,5.855422 -0.975099,0.971392 -2.118908,1.714275 -3.427543,2.226127 -0.413789,0.161848 -0.567607,0.19701 -0.709039,0.162084 z"
     id="path12" />
</svg>
