<?xml version="1.0" encoding="UTF-8" standalone="no"?>
<svg
   xmlns:dc="http://purl.org/dc/elements/1.1/"
   xmlns:cc="http://creativecommons.org/ns#"
   xmlns:rdf="http://www.w3.org/1999/02/22-rdf-syntax-ns#"
   xmlns:svg="http://www.w3.org/2000/svg"
   xmlns="http://www.w3.org/2000/svg"
   xmlns:sodipodi="http://sodipodi.sourceforge.net/DTD/sodipodi-0.dtd"
   xmlns:inkscape="http://www.inkscape.org/namespaces/inkscape"
   version="1.1"
   width="24"
   height="24"
   viewBox="0 0 24 24"
   id="svg4"
   sodipodi:docname="instagram.svg"
   inkscape:version="1.0.1 (3bc2e813f5, 2020-09-07)">
  <metadata
     id="metadata10">
    <rdf:RDF>
      <cc:Work
         rdf:about="">
        <dc:format>image/svg+xml</dc:format>
        <dc:type
           rdf:resource="http://purl.org/dc/dcmitype/StillImage" />
      </cc:Work>
    </rdf:RDF>
  </metadata>
  <defs
     id="defs8" />
  <sodipodi:namedview
     pagecolor="#ffffff"
     bordercolor="#666666"
     borderopacity="1"
     objecttolerance="10"
     gridtolerance="10"
     guidetolerance="10"
     inkscape:pageopacity="0"
     inkscape:pageshadow="2"
     inkscape:window-width="1920"
     inkscape:window-height="1001"
     id="namedview6"
     showgrid="false"
     inkscape:zoom="34.583333"
     inkscape:cx="12"
     inkscape:cy="11.942169"
     inkscape:window-x="-9"
     inkscape:window-y="-9"
     inkscape:window-maximized="1"
     inkscape:current-layer="svg4" />
  <path
     d="M7.8,2H16.2C19.4,2 22,4.6 22,7.8V16.2A5.8,5.8 0 0,1 16.2,22H7.8C4.6,22 2,19.4 2,16.2V7.8A5.8,5.8 0 0,1 7.8,2M7.6,4A3.6,3.6 0 0,0 4,7.6V16.4C4,18.39 5.61,20 7.6,20H16.4A3.6,3.6 0 0,0 20,16.4V7.6C20,5.61 18.39,4 16.4,4H7.6M17.25,5.5A1.25,1.25 0 0,1 18.5,6.75A1.25,1.25 0 0,1 17.25,8A1.25,1.25 0 0,1 16,6.75A1.25,1.25 0 0,1 17.25,5.5M12,7A5,5 0 0,1 17,12A5,5 0 0,1 12,17A5,5 0 0,1 7,12A5,5 0 0,1 12,7M12,9A3,3 0 0,0 9,12A3,3 0 0,0 12,15A3,3 0 0,0 15,12A3,3 0 0,0 12,9Z"
     id="path2" />
  <path
     style="fill:#e6e6e6;stroke-width:0.0289157"
     d="M 7.1015902,21.942974 C 5.8132488,21.777658 4.6355701,21.199537 3.7180162,20.281984 2.7784112,19.342379 2.2039314,18.151305 2.0525292,16.828916 2.0307428,16.638627 2.0238882,15.101472 2.0302221,11.826506 2.0404262,6.5504305 2.0242505,6.9738159 2.2450334,6.2039763 2.783572,4.3261659 4.2519118,2.8354155 6.1209768,2.2688765 6.3023393,2.2139031 6.596542,2.1397645 6.7747611,2.1041241 l 0.3240341,-0.064801 4.7277108,-0.00905 c 3.34928,-0.00641 4.812019,3.772e-4 5.016867,0.023283 2.029107,0.2268954 3.804057,1.5312785 4.645646,3.4140125 0.163073,0.364815 0.31784,0.8620649 0.406857,1.3071918 l 0.0648,0.3240341 0.0091,4.7277105 c 0.0063,3.280637 -5.23e-4,4.811694 -0.02239,5.002092 -0.151185,1.316442 -0.733316,2.526166 -1.662981,3.455831 -0.921895,0.921895 -2.11146,1.498714 -3.425839,1.661187 -0.30427,0.03761 -9.4626245,0.03513 -9.7569998,-0.0026 z M 17.146988,19.941353 c 1.456683,-0.347831 2.488702,-1.390081 2.795568,-2.823281 0.04971,-0.232164 0.05262,-0.515764 0.05262,-5.118072 0,-5.2878376 0.0083,-5.0039384 -0.161088,-5.5269178 C 19.483309,5.389881 18.610119,4.516691 17.526918,4.1659066 17.003778,3.9964928 17.291703,4.0048193 11.956627,4.0048193 H 7.0409639 l -0.346988,0.093535 C 6.2877435,4.20786 5.7587433,4.4596268 5.4506024,4.6901127 4.7953303,5.1802488 4.3156973,5.8929019 4.0966412,6.7018687 l -0.091822,0.3390952 v 4.9156631 c 0,5.335076 -0.00833,5.047151 0.1610873,5.570291 0.225552,0.696491 0.6829512,1.331139 1.2846958,1.782533 0.4181913,0.313703 1.0878951,0.589584 1.6231721,0.668657 0.09328,0.01378 2.3491171,0.0228 5.0129726,0.02004 4.544682,-0.0047 4.856748,-0.0082 5.060241,-0.0568 z"
     id="path12" />
  <path
     style="fill:#e6e6e6;stroke-width:0.0289157"
     d="M 11.407229,16.955256 C 11.12459,16.912928 10.679755,16.811177 10.453861,16.737185 10.084538,16.616211 9.4315864,16.285456 9.1084337,16.055652 8.7562439,15.805199 8.1948009,15.243756 7.9443479,14.891566 7.7145441,14.568413 7.3837886,13.915462 7.2628153,13.546139 7.0802919,12.988907 7.0410744,12.715454 7.0410744,12 c 0,-0.57413 0.00801,-0.687989 0.068135,-0.968675 C 7.5385804,9.0269061 9.0269061,7.5385804 11.031325,7.1092093 11.312011,7.049083 11.42587,7.0410744 12,7.0410744 c 0.714773,0 0.989229,0.039234 1.546988,0.2211475 0.365565,0.1192292 1.019636,0.4510497 1.344578,0.682126 0.35219,0.250453 0.913633,0.811896 1.164086,1.1640858 0.229804,0.3231527 0.560559,0.9761043 0.681533,1.3454273 0.182523,0.557232 0.221741,0.830685 0.221741,1.546139 0,0.57427 -0.008,0.687821 -0.06811,0.967826 -0.09984,0.465002 -0.214463,0.789512 -0.439485,1.244222 -0.260799,0.527007 -0.511287,0.874478 -0.938046,1.301237 -0.42706,0.427061 -0.774633,0.677539 -1.301237,0.937738 -0.458008,0.226304 -0.727189,0.323148 -1.185542,0.426522 -0.271879,0.06132 -0.406259,0.07311 -0.925301,0.08122 -0.333976,0.0052 -0.646265,0.0036 -0.693976,-0.0035 z m 1.116694,-1.990469 c 1.636699,-0.286637 2.728384,-1.846974 2.440864,-3.48871 C 14.61318,9.4683968 12.406175,8.3891133 10.591798,9.3375703 9.1266968,10.103445 8.5642547,11.928867 9.3375703,13.408202 c 0.6010613,1.149817 1.8962277,1.782527 3.1863527,1.556585 z"
     id="path14" />
  <path
     style="fill:#e6e6e6;stroke-width:0.0289157"
     d="M 16.877102,7.9207606 C 16.222325,7.6955211 15.87658,7.0319455 16.076595,6.3843739 16.293476,5.6821943 17.108986,5.32222 17.767879,5.6378244 c 0.698213,0.3344388 0.92558,1.2047733 0.478014,1.8297908 -0.305704,0.4269111 -0.886299,0.6191199 -1.368791,0.4531454 z"
     id="path16" />
</svg>
