<?xml version="1.0" encoding="UTF-8" standalone="no"?>
<svg
   xmlns:dc="http://purl.org/dc/elements/1.1/"
   xmlns:cc="http://creativecommons.org/ns#"
   xmlns:rdf="http://www.w3.org/1999/02/22-rdf-syntax-ns#"
   xmlns:svg="http://www.w3.org/2000/svg"
   xmlns="http://www.w3.org/2000/svg"
   xmlns:sodipodi="http://sodipodi.sourceforge.net/DTD/sodipodi-0.dtd"
   xmlns:inkscape="http://www.inkscape.org/namespaces/inkscape"
   version="1.1"
   width="24"
   height="24"
   viewBox="0 0 24 24"
   id="svg4"
   sodipodi:docname="steam.svg"
   inkscape:version="1.0.1 (3bc2e813f5, 2020-09-07)">
  <metadata
     id="metadata10">
    <rdf:RDF>
      <cc:Work
         rdf:about="">
        <dc:format>image/svg+xml</dc:format>
        <dc:type
           rdf:resource="http://purl.org/dc/dcmitype/StillImage" />
      </cc:Work>
    </rdf:RDF>
  </metadata>
  <defs
     id="defs8" />
  <sodipodi:namedview
     pagecolor="#ffffff"
     bordercolor="#666666"
     borderopacity="1"
     objecttolerance="10"
     gridtolerance="10"
     guidetolerance="10"
     inkscape:pageopacity="0"
     inkscape:pageshadow="2"
     inkscape:window-width="1920"
     inkscape:window-height="1001"
     id="namedview6"
     showgrid="false"
     inkscape:zoom="34.583333"
     inkscape:cx="12"
     inkscape:cy="11.942169"
     inkscape:window-x="-9"
     inkscape:window-y="-9"
     inkscape:window-maximized="1"
     inkscape:current-layer="svg4" />
  <path
     d="M12,2A10,10 0 0,1 22,12A10,10 0 0,1 12,22C7.4,22 3.55,18.92 2.36,14.73L6.19,16.31C6.45,17.6 7.6,18.58 8.97,18.58C10.53,18.58 11.8,17.31 11.8,15.75V15.62L15.2,13.19H15.28C17.36,13.19 19.05,11.5 19.05,9.42C19.05,7.34 17.36,5.65 15.28,5.65C13.2,5.65 11.5,7.34 11.5,9.42V9.47L9.13,12.93L8.97,12.92C8.38,12.92 7.83,13.1 7.38,13.41L2,11.2C2.43,6.05 6.73,2 12,2M8.28,17.17C9.08,17.5 10,17.13 10.33,16.33C10.66,15.53 10.28,14.62 9.5,14.29L8.22,13.76C8.71,13.58 9.26,13.57 9.78,13.79C10.31,14 10.72,14.41 10.93,14.94C11.15,15.46 11.15,16.04 10.93,16.56C10.5,17.64 9.23,18.16 8.15,17.71C7.65,17.5 7.27,17.12 7.06,16.67L8.28,17.17M17.8,9.42C17.8,10.81 16.67,11.94 15.28,11.94C13.9,11.94 12.77,10.81 12.77,9.42A2.5,2.5 0 0,1 15.28,6.91C16.67,6.91 17.8,8.04 17.8,9.42M13.4,9.42C13.4,10.46 14.24,11.31 15.29,11.31C16.33,11.31 17.17,10.46 17.17,9.42C17.17,8.38 16.33,7.53 15.29,7.53C14.24,7.53 13.4,8.38 13.4,9.42Z"
     id="path2" />
  <path
     style="fill:#e6e6e6;stroke-width:0.0289157"
     d="m 11.233735,21.959263 c -0.04771,-0.0064 -0.223374,-0.02586 -0.390362,-0.04334 C 9.3002313,21.754397 7.6303747,21.123575 6.2989021,20.19916 5.5976967,19.712327 4.7511427,18.930609 4.2461397,18.303614 3.6434574,17.555344 3.1608084,16.754352 2.7899609,15.886974 2.6338359,15.521813 2.3857052,14.809476 2.4071591,14.788022 c 0.00802,-0.008 0.8603644,0.33404 1.8940918,0.760141 l 1.8795044,0.774729 0.031782,0.136383 c 0.1437637,0.616926 0.6185745,1.287363 1.1698771,1.651878 0.251991,0.166614 0.6177522,0.328572 0.9054801,0.400944 0.3580204,0.09005 1.0460964,0.09031 1.3741709,5.11e-4 0.8425766,-0.230622 1.5203726,-0.788979 1.8738386,-1.543639 0.15202,-0.324566 0.226777,-0.609015 0.264776,-1.007459 0.01745,-0.182927 0.04015,-0.341014 0.05046,-0.351304 0.01031,-0.01029 0.765261,-0.552507 1.677674,-1.204926 l 1.658933,-1.186216 0.2495,-0.01764 c 1.020936,-0.07217 1.844768,-0.436316 2.519381,-1.113594 0.330934,-0.332242 0.52879,-0.613878 0.740349,-1.05384 0.23347,-0.485531 0.330334,-0.890524 0.350526,-1.4655673 C 19.066353,9.031558 19.018655,8.6794268 18.863772,8.2120482 18.550048,7.2653436 17.829786,6.4477709 16.927256,6.0138986 15.762014,5.4537328 14.363443,5.5272509 13.283189,6.2054547 12.220452,6.872662 11.582184,7.9396722 11.491967,9.1998905 l -0.02,0.2794089 -1.176143,1.7157716 c -0.9306864,1.357697 -1.1878771,1.714329 -1.2323676,1.708855 -0.030924,-0.0038 -0.1967994,0.0064 -0.3686131,0.02265 -0.4329242,0.04097 -0.8662277,0.184829 -1.2255389,0.406886 l -0.092144,0.05695 -2.6693014,-1.097244 -2.6693014,-1.097245 0.00632,-0.190598 C 2.0659175,10.371173 2.3528384,9.1877954 2.6923173,8.3350175 3.9494161,5.1771597 6.7323114,2.8663586 10.079649,2.2008832 10.762012,2.0652243 11.0505,2.0408211 11.985542,2.0396637 c 0.977025,-0.00121 1.256101,0.024432 2.053012,0.1886313 2.690626,0.554388 5.084865,2.2513706 6.504524,4.6102592 0.722732,1.2008851 1.159635,2.4501505 1.365203,3.9036148 0.07619,0.538719 0.07619,1.976943 0,2.515662 -0.323516,2.287422 -1.285043,4.233539 -2.874713,5.818382 -1.348195,1.344103 -3.092337,2.294179 -4.923853,2.682142 -0.745126,0.157837 -1.084155,0.192857 -1.965137,0.202988 -0.453253,0.0052 -0.863132,0.0043 -0.910843,-0.0021 z"
     id="path12" />
  <path
     style="fill:#e6e6e6;stroke-width:0.0289157"
     d="M 8.7148354,17.839989 C 8.0886691,17.756509 7.5598065,17.427058 7.2126643,16.904224 7.1531664,16.814614 7.109778,16.736005 7.1162456,16.729537 c 0.00647,-0.0065 0.2914522,0.102063 0.633299,0.241178 0.728823,0.296596 0.8145727,0.320851 1.1342931,0.320851 0.455235,0 0.8149206,-0.147929 1.1243913,-0.462432 0.287576,-0.292252 0.458237,-0.701558 0.458237,-1.099014 0,-0.347707 -0.158122,-0.77337 -0.381594,-1.027248 C 9.8618314,14.449485 9.6805716,14.343774 8.9705726,14.053012 8.6016461,13.901928 8.2995717,13.770099 8.2992962,13.760059 c -0.00217,-0.079 0.7593965,-0.140288 1.0475748,-0.08431 1.432604,0.278298 2.15538,1.83897 1.446898,3.124247 -0.154027,0.279423 -0.53978,0.649354 -0.8384903,0.804095 -0.3843601,0.199111 -0.8508835,0.28783 -1.2404433,0.235894 z"
     id="path14" />
  <path
     style="fill:#e6e6e6;stroke-width:0.0289157"
     d="m 14.668917,11.843211 c -0.877915,-0.232063 -1.565321,-0.920871 -1.80614,-1.809823 -0.05498,-0.2029611 -0.06601,-0.3129917 -0.06374,-0.6357976 0.0023,-0.3336266 0.01387,-0.4273299 0.07923,-0.6447206 0.308164,-1.024921 1.124813,-1.7065155 2.172336,-1.8130829 1.192331,-0.1212991 2.357522,0.7025201 2.658311,1.8794902 0.286536,1.1212002 -0.273945,2.3179879 -1.32819,2.8360659 -0.398802,0.19598 -0.560999,0.234522 -1.040964,0.247359 -0.357944,0.0096 -0.435623,0.0027 -0.670842,-0.05949 z m 0.878388,-0.539593 c 0.943107,-0.1306 1.628599,-0.924905 1.628599,-1.8871189 0,-0.4491351 -0.134797,-0.8419038 -0.404099,-1.1774609 -0.572297,-0.7130964 -1.516001,-0.9203985 -2.342889,-0.5146591 -0.493365,0.242085 -0.886175,0.7512431 -1.000861,1.2973076 -0.06344,0.3020735 -0.04087,0.6949908 0.05744,0.9998573 0.217071,0.673139 0.836807,1.190794 1.536188,1.283151 0.252653,0.03336 0.277262,0.03331 0.525618,-0.0011 z"
     id="path16" />
</svg>
